<?xml version="1.0" standalone="no"?>
<!DOCTYPE svg PUBLIC "-//W3C//DTD SVG 20010904//EN"
 "http://www.w3.org/TR/2001/REC-SVG-20010904/DTD/svg10.dtd">
<svg version="1.0" xmlns="http://www.w3.org/2000/svg"
 width="400.000000pt" height="400.000000pt" viewBox="0 0 400.000000 400.000000"
 preserveAspectRatio="xMidYMid meet">

<g transform="translate(0.000000,400.000000) scale(0.100000,-0.100000)"
fill="#000000" stroke="none">
<path d="M3 3901 c1 -55 4 -97 6 -95 2 2 13 -2 25 -8 11 -7 24 -11 27 -11 4 1
6 -3 6 -10 -2 -60 18 -57 28 4 5 29 11 39 21 35 37 -15 46 -15 17 0 -28 15
-33 23 -33 54 0 21 -3 58 -6 84 l-7 46 -43 0 -43 0 2 -99z"/>
<path d="M210 3996 c0 -2 7 -7 16 -10 8 -3 12 -2 9 4 -6 10 -25 14 -25 6z"/>
<path d="M380 3995 c0 -3 7 -17 16 -31 17 -24 17 -24 31 -4 8 11 18 18 23 15
9 -6 1 -47 -11 -55 -4 -3 -1 -14 7 -25 15 -19 16 -19 44 15 16 19 36 47 45 63
16 27 16 27 -9 27 -23 0 -26 -4 -26 -34 0 -19 -7 -39 -16 -47 -15 -12 -16 -11
-11 6 3 11 8 32 11 48 5 27 4 27 -50 27 -30 0 -54 -2 -54 -5z"/>
<path d="M560 3991 c0 -5 -20 -36 -44 -69 -33 -44 -42 -63 -33 -70 14 -11 48
-12 42 -1 -3 4 2 9 10 13 9 3 12 12 8 23 -4 13 1 11 17 -7 l22 -25 -7 25 c-6
20 -5 23 6 13 18 -18 34 -16 19 2 -15 18 0 20 19 3 11 -11 13 -10 8 3 -3 10
-11 35 -18 58 -8 29 -18 41 -31 41 -10 0 -18 -4 -18 -9z"/>
<path d="M679 3893 c-62 -60 -146 -150 -188 -202 -324 -399 -492 -641 -491
-706 1 -27 3 -26 20 18 65 167 522 752 728 933 40 35 66 64 58 64 -9 0 -66
-48 -127 -107z"/>
<path d="M1327 3928 c-47 -77 -80 -138 -74 -138 4 0 95 147 116 188 25 47 1
19 -42 -50z"/>
<path d="M2950 3920 c53 -106 136 -319 195 -505 27 -82 50 -145 52 -139 13 40
-249 724 -278 724 -5 0 9 -36 31 -80z"/>
<path d="M3893 3933 c31 -38 67 -89 81 -113 21 -36 26 -40 26 -22 0 50 -100
195 -139 200 -20 3 -16 -5 32 -65z"/>
<path d="M3945 3980 c17 -11 35 -20 40 -20 6 0 -3 9 -20 20 -16 11 -34 20 -40
20 -5 0 4 -9 20 -20z"/>
<path d="M3750 3795 c8 -11 35 -45 60 -75 53 -64 160 -205 177 -235 7 -12 12
-14 13 -6 0 17 -52 88 -154 211 -80 97 -124 145 -96 105z"/>
<path d="M105 3763 c-11 -59 -45 -132 -73 -154 -23 -18 -26 -27 -27 -97 -1
-42 3 -86 9 -97 6 -11 9 -24 8 -28 -4 -14 26 -38 33 -27 10 16 23 12 30 -11 4
-11 9 -18 11 -16 8 8 -24 78 -53 116 l-26 36 32 -30 c18 -16 40 -47 48 -67 8
-21 19 -35 25 -32 5 3 2 14 -8 25 -27 30 -12 30 33 -1 24 -16 42 -24 40 -17
-1 7 -6 15 -12 19 -6 4 -2 13 9 21 11 8 16 19 12 25 -4 7 1 10 14 7 20 -4 26
5 13 19 -4 4 -8 20 -9 36 -1 20 5 31 22 40 13 7 21 17 17 23 -3 5 -9 3 -14 -4
-4 -8 -12 -14 -16 -14 -9 0 -46 -25 -101 -69 -22 -17 -16 -9 14 20 28 27 62
56 75 66 19 13 22 19 12 29 -17 17 -16 29 2 29 34 0 148 72 138 87 -7 8 -2 23
8 23 5 0 7 -5 3 -12 -4 -7 -3 -8 4 -4 8 5 9 13 2 26 -7 13 -6 19 6 24 8 3 12
2 9 -4 -10 -16 1 -11 16 7 10 11 10 14 2 9 -7 -4 -13 -2 -13 3 0 6 8 11 18 12
10 0 6 5 -12 11 -20 7 -39 7 -66 -1 -48 -14 -71 -15 -50 -1 11 8 9 9 -10 5
-42 -9 -124 -10 -146 -2 -19 7 -22 3 -29 -30z m153 10 c-10 -2 -28 -2 -40 0
-13 2 -5 4 17 4 22 1 32 -1 23 -4z m76 -100 c-10 -7 -23 -13 -28 -12 -6 0 -5
3 2 6 6 2 10 8 8 12 -3 4 4 7 15 7 19 0 19 -1 3 -13z m-124 -183 c0 -5 -5 -10
-11 -10 -5 0 -7 5 -4 10 3 6 8 10 11 10 2 0 4 -4 4 -10z m-150 -114 c-14 -14
-24 0 -16 21 6 15 8 15 16 3 6 -9 5 -19 0 -24z"/>
<path d="M3910 3740 c0 -5 5 -10 11 -10 5 0 7 5 4 10 -3 6 -8 10 -11 10 -2 0
-4 -4 -4 -10z"/>
<path d="M1200 3700 c-6 -11 -8 -20 -6 -20 3 0 10 9 16 20 6 11 8 20 6 20 -3
0 -10 -9 -16 -20z"/>
<path d="M1171 3643 c-10 -26 -10 -27 4 -9 8 11 15 23 15 28 0 15 -7 8 -19
-19z"/>
<path d="M200 3389 c0 -5 5 -7 10 -4 6 3 10 8 10 11 0 2 -4 4 -10 4 -5 0 -10
-5 -10 -11z"/>
<path d="M203 3152 c-52 -108 -105 -200 -143 -252 -34 -44 -60 -86 -58 -91 2
-6 19 12 38 40 19 28 38 51 41 51 4 0 -11 -42 -34 -92 -26 -61 -41 -112 -44
-148 l-3 -55 23 75 c34 111 89 243 184 444 46 98 82 183 81 188 -2 5 -40 -67
-85 -160z"/>
<path d="M3583 3290 c169 -256 417 -598 417 -575 0 10 -46 79 -103 154 -57 75
-145 197 -196 271 -52 74 -103 144 -114 155 l-21 20 17 -25z"/>
<path d="M3201 3244 c0 -11 3 -14 6 -6 3 7 2 16 -1 19 -3 4 -6 -2 -5 -13z"/>
<path d="M1427 3090 c-37 -77 -67 -144 -67 -151 0 -8 -11 -9 -32 -5 -77 16
-122 18 -205 10 l-88 -9 145 -5 c80 -3 150 -9 157 -13 9 -5 5 -26 -13 -80 -14
-39 -38 -126 -55 -192 -35 -138 -38 -149 -44 -144 -9 10 -26 146 -26 215 l0
73 -35 -68 c-35 -68 -184 -274 -231 -321 l-25 -25 6 180 c3 99 15 243 26 319
21 144 21 199 0 79 -28 -159 -42 -321 -46 -523 -4 -209 -2 -236 31 -365 l15
-60 -5 55 -5 55 21 -35 c12 -19 37 -58 56 -87 24 -36 33 -58 28 -72 -5 -16 -3
-20 9 -15 10 4 31 -5 52 -21 21 -16 41 -24 52 -20 13 5 11 10 -13 30 -32 26
-51 32 -39 13 5 -7 3 -8 -5 -4 -7 5 -10 11 -7 14 3 3 -6 21 -20 40 -32 41 -54
110 -54 166 0 76 106 219 180 245 l31 10 -19 -27 c-53 -75 -65 -112 -60 -198
4 -68 10 -93 38 -148 19 -37 48 -79 64 -94 l29 -27 -31 40 c-45 58 -64 108
-52 140 5 14 16 28 25 31 8 3 13 9 10 13 -8 14 26 51 66 70 l39 19 0 -42 c0
-38 19 -81 44 -98 40 -28 96 19 96 81 0 51 10 63 36 42 29 -23 47 -84 40 -129
-5 -31 -4 -34 5 -18 6 10 12 54 13 97 1 76 1 77 20 61 18 -16 19 -16 12 11 -4
16 -2 27 4 27 5 0 1 21 -9 48 -53 134 -134 535 -113 557 3 3 26 -7 51 -21 l46
-25 -31 28 c-17 15 -40 36 -52 45 -19 15 -21 25 -17 100 3 46 10 123 15 172 6
49 9 90 8 92 -2 1 -34 -60 -71 -136z m42 -12 c-4 -29 -8 -84 -8 -121 -1 -38
-4 -67 -8 -65 -5 2 -25 10 -46 18 -30 11 -36 18 -31 35 14 44 87 194 94 190 3
-2 3 -28 -1 -57z m-41 -198 c24 -15 32 -27 32 -49 0 -41 39 -301 47 -314 6
-10 -3 -9 -67 8 -24 6 -24 6 3 -10 52 -30 25 -56 -31 -29 -20 10 -63 20 -96
22 l-59 5 6 51 c4 40 63 248 92 324 7 18 35 15 73 -8z m-223 -349 c10 -32 -9
-25 -44 14 l-31 36 -2 -33 c0 -18 0 -42 1 -54 1 -15 -13 -30 -48 -53 -28 -17
-77 -59 -111 -91 l-60 -60 0 31 c0 24 19 55 82 133 44 55 106 139 137 185 l56
84 7 -86 c3 -47 9 -95 13 -106z m324 -121 c1 -13 0 -13 -9 0 -5 8 -9 24 -9 35
l0 20 9 -20 c5 -11 9 -27 9 -35z m-214 -126 c30 -30 -8 -94 -56 -94 -17 0 -34
8 -43 22 -20 29 -20 30 5 62 24 30 69 35 94 10z m65 -9 c0 -8 -7 -15 -15 -15
-8 0 -15 7 -15 15 0 8 7 15 15 15 8 0 15 -7 15 -15z m50 -75 c40 -40 21 -140
-27 -140 -50 0 -75 113 -31 144 29 20 34 20 58 -4z m-310 -310 c0 -5 -2 -10
-4 -10 -3 0 -8 5 -11 10 -3 6 -1 10 4 10 6 0 11 -4 11 -10z"/>
<path d="M1388 2533 c7 -3 16 -2 19 1 4 3 -2 6 -13 5 -11 0 -14 -3 -6 -6z"/>
<path d="M598 3098 c-85 -136 -83 -132 -71 -125 6 4 37 50 69 104 32 53 63
103 67 110 4 7 6 13 3 13 -2 0 -33 -46 -68 -102z"/>
<path d="M3221 3175 c-1 -11 4 -36 9 -55 22 -72 109 -509 120 -602 10 -76 10
-108 0 -150 -17 -73 -90 -290 -102 -305 -36 -44 -438 431 -534 632 -19 39 -32
61 -30 50 3 -11 12 -65 21 -120 16 -100 62 -276 90 -341 8 -19 10 -34 6 -34
-5 0 -45 38 -89 85 -133 141 -218 312 -255 517 l-15 78 37 10 c20 6 77 15 127
21 86 11 147 7 264 -16 14 -3 5 2 -20 10 -91 31 -248 30 -379 -2 l-24 -6 6 89
6 89 -13 -87 c-6 -48 -14 -89 -16 -91 -3 -2 -35 -19 -72 -37 -81 -41 -83 -51
-3 -15 32 14 61 25 65 25 21 0 -51 -239 -111 -367 -21 -46 -35 -83 -33 -83 12
0 115 233 137 309 l24 84 18 -79 c42 -194 132 -349 289 -503 53 -51 96 -99 96
-106 0 -19 -20 -23 -55 -13 -16 4 -78 8 -138 8 -72 0 -119 5 -143 15 -34 14
-35 14 -32 -5 2 -15 -15 -34 -61 -70 -69 -54 -63 -59 34 -34 84 21 146 25 225
14 100 -14 148 -33 252 -97 l87 -55 75 29 c42 15 76 31 76 36 0 4 -20 7 -44 7
-38 0 -50 6 -85 39 -22 21 -61 47 -86 57 -42 18 -45 21 -45 57 0 34 -2 38 -20
32 -38 -12 -111 177 -155 405 -6 29 4 19 60 -65 90 -132 216 -285 344 -417 74
-76 102 -112 98 -125 -2 -10 -8 -27 -12 -38 -3 -11 1 -7 10 8 22 39 108 292
133 392 27 107 40 199 46 325 l5 105 -14 -125 c-7 -69 -14 -136 -14 -149 -2
-54 -19 0 -34 109 -10 63 -37 203 -61 310 -50 223 -64 274 -65 245z"/>
<path d="M961 3044 c0 -11 3 -14 6 -6 3 7 2 16 -1 19 -3 4 -6 -2 -5 -13z"/>
<path d="M993 2923 c9 -2 23 -2 30 0 6 3 -1 5 -18 5 -16 0 -22 -2 -12 -5z"/>
<path d="M460 2868 c-63 -108 -189 -377 -225 -478 -20 -58 -49 -130 -64 -160
-35 -68 -61 -180 -77 -335 -8 -71 -14 -84 -14 -28 0 22 -8 64 -19 94 -10 30
-25 92 -34 139 -9 47 -18 94 -20 105 -3 11 -5 -45 -6 -125 -1 -104 3 -150 12
-159 9 -11 9 -13 0 -7 -22 12 -15 -35 12 -86 31 -59 31 -69 0 -98 -14 -13 -25
-28 -25 -34 0 -5 13 3 29 18 l29 28 16 -30 c15 -29 75 -87 82 -79 2 2 -3 18
-11 35 -9 17 -18 53 -22 81 -5 45 -3 54 24 88 17 21 49 67 71 102 37 58 40 62
47 40 37 -123 149 -361 228 -486 30 -47 29 -49 -53 -82 -30 -13 -104 -48 -165
-79 -137 -71 -141 -81 -63 -156 29 -28 61 -63 71 -79 23 -35 30 -31 143 75
l88 83 -29 -50 c-39 -69 -105 -156 -135 -180 -102 -81 -190 -186 -190 -228 0
-16 5 -18 29 -14 16 3 81 9 145 13 l116 7 64 116 c35 64 74 149 87 189 32 100
37 85 64 -168 20 -198 20 -204 -16 -257 -36 -52 -46 -106 -30 -155 13 -40 7
-65 -19 -73 -21 -7 -210 -192 -210 -206 0 -6 -5 -7 -10 -4 -6 4 -7 11 -4 17 3
5 12 31 19 56 8 26 23 79 35 117 33 107 39 135 29 141 -5 3 -1 16 7 30 9 13
15 27 12 29 -6 6 -83 -143 -98 -190 -7 -22 -19 -46 -27 -53 -11 -11 -13 -3
-13 50 0 35 4 68 9 74 4 5 12 23 15 39 7 29 7 29 -9 10 -16 -20 -16 -20 -5 3
6 12 16 22 22 22 6 0 9 3 6 6 -3 3 19 46 49 96 29 50 52 92 49 95 -2 3 -10 -6
-17 -19 -6 -12 -15 -25 -18 -28 -4 -3 -22 -29 -40 -57 -18 -29 -38 -53 -43
-53 -6 0 -4 8 3 17 10 11 10 14 2 9 -8 -4 -13 -2 -13 6 0 8 -3 9 -8 3 -4 -6
-29 -26 -55 -45 -27 -19 -63 -46 -80 -60 -48 -39 -177 -114 -184 -107 -5 5 26
35 76 74 9 7 11 13 5 13 -6 0 -14 -3 -18 -7 -4 -5 -11 -8 -14 -8 -4 0 -21 -6
-39 -13 l-31 -14 -1 -115 c-1 -92 1 -114 11 -106 7 6 62 49 122 96 60 48 111
85 113 83 2 -1 -4 -20 -12 -40 -35 -83 -37 -257 -5 -377 l11 -39 58 0 59 0 7
37 c11 61 44 114 114 183 l66 65 6 -66 c8 -72 40 -158 70 -185 10 -9 16 -21
13 -25 -10 -17 25 -9 90 22 70 33 86 32 86 -7 0 -20 5 -24 33 -24 17 0 27 4
20 8 -19 12 -128 231 -156 312 -48 142 -77 241 -77 267 0 15 20 60 44 102 25
42 66 122 91 179 25 57 61 135 81 174 26 52 45 114 70 230 18 88 41 176 51
196 24 50 50 49 77 -3 18 -34 21 -57 21 -150 -1 -95 -5 -124 -32 -210 -18 -55
-41 -140 -53 -190 -29 -126 -48 -180 -82 -236 -28 -44 -42 -54 -113 -80 -18
-6 -17 -7 6 -8 14 -1 46 12 72 29 l47 30 89 -79 c48 -44 103 -102 120 -130 28
-44 32 -56 26 -91 -9 -51 -75 -187 -128 -264 -24 -34 -46 -67 -50 -73 -7 -10
60 -13 322 -13 l330 0 28 54 c146 283 184 377 183 452 -1 22 -8 11 -29 -46
-16 -41 -41 -102 -57 -136 l-29 -61 0 187 0 188 50 -36 c28 -20 52 -39 55 -43
3 -3 17 -9 32 -12 25 -7 26 -10 33 -94 9 -97 1 -408 -10 -435 -5 -12 -2 -18 8
-18 17 0 24 36 33 172 l7 98 52 39 c28 22 59 46 67 54 14 14 20 11 62 -32 47
-47 47 -47 26 -66 -20 -18 -90 -123 -144 -217 l-28 -48 90 0 90 0 19 33 c11
17 30 58 43 90 34 83 43 74 65 -67 10 -63 15 -35 7 37 -5 37 -5 67 -2 67 4 0
15 -9 26 -21 25 -28 52 -41 94 -48 33 -6 35 -9 38 -49 2 -23 8 -42 13 -42 7 0
8 15 4 39 -6 34 -4 40 15 46 12 4 24 4 27 1 4 -3 13 0 21 7 13 10 15 9 9 -5
-3 -10 -2 -20 4 -23 5 -4 9 -3 8 2 -5 27 6 22 46 -21 54 -59 69 -56 22 5 -50
67 -54 74 -31 65 34 -13 127 -36 172 -42 61 -8 70 3 70 87 0 57 3 73 18 84 18
13 19 8 24 -110 3 -68 8 -126 11 -129 3 -4 9 83 12 191 10 327 75 615 184 823
34 65 59 97 111 143 37 32 83 68 102 79 19 11 62 55 96 97 73 91 115 157 59
91 -76 -89 -202 -208 -285 -269 -111 -83 -254 -166 -310 -181 -115 -31 -320
19 -438 107 -39 30 -36 43 4 16 42 -27 218 -24 344 6 98 24 141 40 108 41 -10
0 22 38 81 98 58 59 125 140 170 207 41 61 88 119 105 131 17 11 58 38 91 60
84 54 119 85 209 183 70 77 156 190 156 206 0 3 -27 -30 -60 -74 -123 -163
-268 -288 -450 -388 -110 -61 -274 -104 -385 -102 l-50 1 35 10 c60 18 120 43
120 51 0 4 5 7 11 7 19 0 162 127 200 177 35 46 93 141 119 193 22 45 -5 7
-64 -87 -71 -114 -130 -181 -210 -237 -74 -53 -138 -82 -217 -98 -79 -16 -54
-26 66 -27 69 -1 116 6 200 28 61 16 118 33 129 37 17 6 17 5 6 -17 -66 -125
-233 -310 -331 -368 -73 -43 -301 -56 -383 -22 -16 6 -31 10 -33 7 -3 -2 -14
5 -25 16 -11 11 -22 17 -26 14 -12 -12 80 -93 146 -128 57 -31 119 -50 241
-74 23 -5 22 -7 -20 -31 -24 -14 -69 -40 -99 -58 -124 -74 -482 -242 -599
-280 -66 -22 -129 -16 -176 16 -136 94 -469 344 -521 392 -69 64 -152 163
-179 216 -11 22 -19 65 -22 118 -2 46 -8 95 -13 108 -7 18 -6 25 3 25 6 0 -6
15 -28 33 -53 43 -79 71 -115 125 -25 37 -30 56 -30 104 0 32 2 58 5 58 3 0
27 -16 54 -35 97 -70 204 -99 281 -76 18 6 7 8 -36 8 -34 1 -71 7 -83 14 -38
24 -136 191 -174 299 -4 10 -6 11 -6 2 -2 -23 70 -185 104 -237 19 -27 32 -51
30 -53 -8 -9 -112 48 -142 78 -27 26 -33 38 -33 75 0 97 -76 236 -138 252 -13
3 -31 21 -41 42 -33 64 -90 98 -135 82 -33 -13 -38 -34 -20 -83 12 -33 17 -90
18 -238 2 -173 5 -202 24 -254 26 -69 28 -105 7 -132 -14 -18 -14 -18 -9 3 4
15 0 23 -15 28 -11 3 -36 21 -55 40 -19 18 -38 30 -42 27 -4 -4 -4 -2 0 5 3 6
1 15 -6 20 -18 11 -60 69 -89 122 -32 58 -43 76 -55 92 -18 23 -61 160 -78
249 -20 105 -21 263 -2 317 14 40 137 298 202 426 42 80 37 89 -6 15z m-263
-921 c-86 -143 -86 -143 -87 -72 0 74 51 298 81 357 l23 43 19 -118 19 -117
-55 -93z m507 197 c9 -24 2 -26 -12 -4 -7 11 -8 20 -3 20 5 0 12 -7 15 -16z
m100 -83 c15 -16 27 -32 27 -35 -1 -3 6 -17 15 -31 19 -29 28 -105 13 -105 -7
0 -9 12 -7 29 4 28 3 28 -18 14 -21 -13 -22 -13 -20 16 1 17 6 34 10 38 5 4 5
-3 1 -16 -5 -16 -4 -21 4 -17 15 10 13 27 -6 51 -11 14 -14 15 -10 3 12 -36
-7 -25 -29 17 -38 70 -29 87 20 36z m-179 -239 c17 -172 16 -212 -5 -147 -13
39 -27 325 -16 314 3 -3 13 -78 21 -167z m224 43 c6 -25 14 -45 17 -45 3 0 2
10 -1 21 -5 15 -4 19 4 15 6 -4 11 -30 11 -57 0 -59 -20 -190 -30 -202 -4 -5
-3 18 2 50 8 54 5 154 -6 172 -11 16 -23 91 -16 91 4 0 13 -20 19 -45z m-800
-34 c0 -14 -1 -14 -6 -1 -3 8 -10 24 -15 35 -9 20 -9 20 6 1 9 -11 16 -27 15
-35z m51 -88 c0 -21 -3 -24 -9 -14 -5 8 -7 20 -4 28 8 21 13 15 13 -14z m385
-173 c3 -5 1 -10 -4 -10 -6 0 -11 5 -11 10 0 6 2 10 4 10 3 0 8 -4 11 -10z
m65 -100 c6 -11 8 -20 6 -20 -3 0 -10 9 -16 20 -6 11 -8 20 -6 20 3 0 10 -9
16 -20z m27 -42 c-3 -8 -6 -5 -6 6 -1 11 2 17 5 13 3 -3 4 -12 1 -19z m33 -3
c0 -14 -4 -25 -9 -25 -4 0 -6 11 -3 25 2 14 6 25 8 25 2 0 4 -11 4 -25z m-47
-23 l27 -28 -140 -145 c-129 -133 -141 -143 -152 -124 -6 11 -38 46 -71 77
-32 31 -57 63 -55 70 6 16 117 76 228 124 47 20 92 40 100 44 25 14 35 11 63
-18z m31 -251 c-8 -35 -19 -71 -25 -80 -8 -13 -9 -11 -3 9 6 24 6 24 -10 5 -8
-11 -16 -35 -16 -52 0 -19 -8 -41 -20 -53 -11 -11 -17 -20 -14 -20 4 0 1 -7
-6 -15 -21 -25 -23 -10 -4 27 17 33 17 33 -3 15 -19 -16 -53 -15 -53 3 0 4 11
19 25 34 13 14 22 33 19 41 -4 8 -1 15 5 15 6 0 11 5 11 10 0 6 -6 10 -12 9
-36 -4 -39 1 -18 31 12 17 26 27 32 24 6 -4 8 -2 4 4 -3 6 12 50 35 99 l42 88
12 -65 c11 -54 11 -75 -1 -129z m2455 -88 c0 -5 -11 -30 -24 -58 l-23 -50 -1
39 c-1 24 6 47 16 58 16 18 33 24 32 11z m-93 -232 c-8 -25 -22 -80 -31 -121
-16 -70 -21 -79 -79 -135 -122 -118 -215 -179 -356 -229 -41 -15 -79 -31 -85
-36 -5 -4 -39 -8 -75 -7 -59 0 -70 4 -117 39 -29 21 -53 42 -53 47 0 5 -31 49
-69 98 l-68 90 36 13 c42 14 170 70 250 108 31 14 144 76 251 138 110 64 212
116 235 120 22 4 69 19 105 33 l65 26 3 -68 c2 -41 -3 -88 -12 -116z m-2526
149 c0 -5 -5 -10 -11 -10 -5 0 -7 5 -4 10 3 6 8 10 11 10 2 0 4 -4 4 -10z m10
-57 c-11 -17 -11 -17 -6 0 3 10 6 24 7 30 0 9 2 9 5 0 3 -7 0 -20 -6 -30z
m-144 -10 c-2 -3 -6 -3 -9 -1 -3 2 -15 -6 -28 -17 l-24 -20 18 21 c9 11 24 21
32 21 8 0 13 -2 11 -4z m172 -13 c-7 -10 -14 -17 -17 -15 -4 4 18 35 25 35 2
0 -1 -9 -8 -20z m-29 -58 c-10 -17 -28 -21 -113 -27 -56 -3 -112 -9 -126 -12
-24 -5 -24 -4 -8 12 13 14 37 18 125 21 82 2 110 7 118 18 5 8 11 13 13 11 2
-1 -2 -12 -9 -23z m1112 -84 c68 -51 129 -104 136 -118 9 -17 13 -77 13 -178
0 -132 -3 -159 -20 -197 -11 -24 -24 -46 -29 -49 -18 -12 -69 38 -199 194 -57
68 -73 94 -78 129 -9 61 28 311 47 311 4 0 62 -42 130 -92z m-1198 -142 c10 6
-22 -35 -43 -56 -3 -3 -13 -17 -23 -32 -10 -16 -24 -28 -31 -28 -8 0 -17 -6
-19 -12 -4 -10 -6 -10 -6 -1 -1 7 8 17 19 23 16 9 18 15 10 30 -8 16 -8 18 4
14 18 -7 73 45 71 66 -1 9 0 10 2 2 3 -7 10 -9 16 -6z m288 -199 c-10 -9 -11
-8 -5 6 3 10 9 15 12 12 3 -3 0 -11 -7 -18z m-541 -41 c0 -2 -8 -10 -17 -17
-16 -13 -17 -12 -4 4 13 16 21 21 21 13z m2660 -70 c0 -3 -9 -21 -21 -40 l-21
-35 26 -48 c48 -92 42 -113 -25 -90 -35 13 -52 48 -18 40 34 -9 9 38 -29 54
-33 14 -59 13 -107 -2 -11 -3 -4 2 16 13 110 58 150 85 145 98 -3 9 2 14 14
14 11 0 20 -2 20 -4z m-70 -13 c-50 -9 -159 -44 -165 -53 -3 -6 -11 -10 -18
-10 -7 0 -6 5 3 14 19 18 136 54 175 54 26 -1 27 -1 5 -5z m-270 -33 c38 -27
39 -67 2 -63 -13 2 -22 -3 -22 -11 0 -8 12 -16 27 -18 35 -4 39 -21 11 -47
-17 -16 -30 -20 -53 -15 -16 3 -34 10 -39 14 -5 5 2 6 15 3 22 -5 21 -3 -10
23 -44 38 -41 75 6 85 22 4 36 2 44 -7 6 -8 16 -14 21 -14 6 0 4 7 -3 17 -29
34 -129 59 -129 31 0 -6 -3 -8 -6 -5 -4 4 -1 14 7 23 18 22 87 14 129 -16z
m-166 0 c7 -7 1 -7 -19 -1 -54 17 -61 21 -25 16 19 -3 39 -10 44 -15z m-1504
-97 c22 -47 39 -87 38 -88 -2 -1 -26 -11 -55 -23 l-52 -21 -7 35 c-3 19 -3 54
0 77 7 41 27 107 33 107 2 0 21 -39 43 -87z m1516 20 c-8 -8 -46 22 -46 36 0
10 8 7 25 -9 14 -13 23 -25 21 -27z m242 21 c24 -17 29 -53 10 -72 -15 -15
-32 -16 -23 -2 3 6 1 10 -4 10 -6 0 -11 -7 -11 -15 0 -8 -3 -15 -7 -15 -7 0
-10 78 -5 103 3 11 15 8 40 -9z m157 -84 c8 -13 -5 -13 -25 0 -13 8 -13 10 2
10 9 0 20 -4 23 -10z"/>
<path d="M790 2035 c7 -8 17 -12 22 -9 6 4 5 10 -3 15 -22 14 -33 10 -19 -6z"/>
<path d="M510 1125 c-7 -9 -8 -15 -2 -15 5 0 12 7 16 15 3 8 4 15 2 15 -2 0
-9 -7 -16 -15z"/>
<path d="M475 1119 c-4 -6 -5 -12 -2 -15 2 -3 7 2 10 11 7 17 1 20 -8 4z"/>
<path d="M500 1075 c-8 -9 -8 -15 -2 -15 12 0 26 19 19 26 -2 2 -10 -2 -17
-11z"/>
<path d="M3402 2820 c0 -14 2 -19 5 -12 2 6 2 18 0 25 -3 6 -5 1 -5 -13z"/>
<path d="M62 2750 c0 -14 2 -19 5 -12 2 6 2 18 0 25 -3 6 -5 1 -5 -13z"/>
<path d="M26 2608 c-4 -24 -11 -65 -16 -93 -5 -27 -8 -81 -8 -120 0 -65 1 -61
13 45 7 63 16 136 20 163 4 26 5 47 3 47 -3 0 -9 -19 -12 -42z"/>
<path d="M1665 2476 c3 -27 6 -92 7 -145 l2 -96 6 75 c4 41 7 70 8 63 4 -24
64 -184 69 -180 2 2 -6 29 -18 58 -12 30 -34 104 -50 164 -20 74 -28 94 -24
61z"/>
<path d="M3920 2467 c0 -4 18 -45 40 -90 22 -45 39 -75 39 -67 0 16 -78 171
-79 157z"/>
<path d="M2223 2388 c-33 -67 -37 -71 -44 -48 -9 33 -9 -196 1 -235 4 -16 5
15 2 70 l-5 100 47 93 c25 50 44 92 41 92 -3 0 -21 -33 -42 -72z"/>
<path d="M21 2384 c0 -11 3 -14 6 -6 3 7 2 16 -1 19 -3 4 -6 -2 -5 -13z"/>
<path d="M32 2300 c0 -14 2 -19 5 -12 2 6 2 18 0 25 -3 6 -5 1 -5 -13z"/>
<path d="M1830 2257 c0 -4 11 -35 25 -68 13 -34 28 -78 31 -97 6 -30 8 -33 14
-17 6 18 9 17 23 -12 9 -17 22 -35 29 -39 7 -5 2 8 -11 27 -12 18 -42 75 -66
124 -24 50 -44 87 -45 82z"/>
<path d="M2618 2233 c12 -2 32 -2 45 0 12 2 2 4 -23 4 -25 0 -35 -2 -22 -4z"/>
<path d="M1683 2185 c0 -22 2 -30 4 -17 2 12 2 30 0 40 -3 9 -5 -1 -4 -23z"/>
<path d="M1761 2175 c0 -5 6 -21 14 -35 8 -14 14 -20 14 -15 0 6 -6 21 -14 35
-8 14 -14 21 -14 15z"/>
<path d="M1701 2075 c1 -19 18 -51 18 -35 0 8 -4 22 -9 30 -5 8 -9 11 -9 5z"/>
<path d="M2191 2044 c0 -11 3 -14 6 -6 3 7 2 16 -1 19 -3 4 -6 -2 -5 -13z"/>
<path d="M1844 2022 c8 -15 31 -45 53 -68 21 -22 28 -29 17 -15 -12 14 -34 45
-49 69 -31 48 -43 56 -21 14z"/>
<path d="M1901 2040 c0 -8 4 -22 9 -30 12 -18 12 -2 0 25 -6 13 -9 15 -9 5z"/>
<path d="M300 2004 c0 -14 50 -117 55 -112 8 7 -17 74 -36 99 -10 13 -19 19
-19 13z"/>
<path d="M1980 1985 c13 -14 26 -25 28 -25 3 0 -5 11 -18 25 -13 14 -26 25
-28 25 -3 0 5 -11 18 -25z"/>
<path d="M3830 2000 c0 -29 152 -162 168 -146 3 3 3 7 1 9 -2 1 -30 20 -62 41
-64 41 -70 55 -16 32 54 -22 79 -28 79 -19 0 5 -24 17 -52 27 -29 10 -68 29
-85 43 -18 13 -33 19 -33 13z"/>
<path d="M2201 1984 c0 -11 3 -14 6 -6 3 7 2 16 -1 19 -3 4 -6 -2 -5 -13z"/>
<path d="M1921 1985 c0 -5 6 -21 14 -35 8 -14 14 -20 14 -15 0 6 -6 21 -14 35
-8 14 -14 21 -14 15z"/>
<path d="M2211 1950 c-1 -17 45 -120 54 -120 3 0 -2 14 -11 32 -9 17 -22 47
-29 67 -8 20 -14 29 -14 21z"/>
<path d="M2071 1894 c57 -50 170 -114 226 -127 l22 -5 -21 29 c-25 34 -33 38
-18 9 14 -26 10 -25 -60 9 -72 36 -136 80 -169 115 -14 14 -28 26 -33 26 -5 0
19 -25 53 -56z"/>
<path d="M1307 1869 c7 -7 15 -10 18 -7 3 3 -2 9 -12 12 -14 6 -15 5 -6 -5z"/>
<path d="M409 1804 c30 -60 164 -214 185 -214 6 0 -15 26 -45 58 -30 31 -73
80 -94 107 -49 64 -60 75 -46 49z"/>
<path d="M3927 1796 c-43 -16 -88 -52 -212 -171 -49 -48 -113 -99 -141 -113
-55 -28 -174 -150 -174 -178 0 -8 -4 -12 -10 -9 -5 3 -10 2 -10 -4 0 -5 -9
-13 -20 -16 -11 -4 -18 -10 -15 -15 8 -12 -6 -41 -16 -34 -5 3 -9 2 -8 -3 2
-4 -18 -52 -43 -105 -26 -53 -49 -106 -53 -117 -3 -12 -10 -21 -14 -21 -3 0
-7 -8 -8 -17 -5 -46 -27 -133 -35 -133 -24 0 2 -189 39 -275 30 -71 39 -115
25 -115 -6 0 -37 27 -71 60 -53 53 -79 95 -119 190 -8 19 -9 4 -6 -65 11 -204
56 -421 114 -551 30 -65 23 -74 -17 -25 -7 8 -13 10 -13 5 0 -20 73 -84 95
-84 22 0 22 1 9 38 -19 53 -18 244 2 329 17 76 82 233 96 233 5 0 7 -4 4 -8
-14 -23 -7 -301 9 -387 16 -82 69 -214 81 -202 3 3 -1 18 -9 34 -33 64 -28 76
10 23 21 -30 46 -56 56 -58 12 -3 1 21 -38 79 -78 116 -98 186 -96 324 2 124
12 174 41 200 19 17 28 18 101 7 87 -12 160 -40 197 -75 34 -32 51 -78 71
-197 l18 -105 12 57 c7 33 22 67 37 83 23 25 30 27 87 23 34 -3 70 -8 80 -13
12 -5 17 -3 17 8 0 16 -4 18 -87 37 -47 11 -54 16 -73 55 -12 24 -24 68 -27
97 -7 74 8 86 112 90 l80 3 -63 9 c-73 10 -79 18 -111 138 -27 100 -33 176
-18 218 13 38 2 36 131 28 l38 -3 -4 -110 c-2 -60 -9 -118 -14 -128 -9 -16
-13 -14 -41 15 -18 18 -46 58 -63 88 -32 57 -31 33 1 -32 15 -29 81 -117 131
-173 4 -5 8 101 8 235 l0 244 -21 -21 c-17 -17 -19 -24 -10 -41 20 -37 14 -62
-14 -62 -26 0 -26 1 -23 73 l3 72 33 3 c27 3 32 7 32 30 0 22 -2 24 -12 10 -7
-9 -25 -18 -40 -22 -29 -7 -38 -30 -40 -108 l-1 -47 -40 2 c-36 2 -42 -2 -61
-33 -30 -50 -25 -123 16 -256 l34 -111 -28 -16 c-25 -14 -28 -22 -28 -65 0
-27 9 -75 20 -107 25 -73 25 -82 -1 -90 -11 -4 -25 -19 -30 -33 -13 -33 -21
-21 -38 60 -7 31 -22 72 -34 90 -30 44 -113 84 -214 104 -78 16 -84 16 -110
-2 -15 -10 -30 -17 -33 -17 -3 1 -11 -15 -17 -35 -7 -20 -11 -26 -8 -12 2 14
16 97 30 185 32 203 46 264 90 399 43 131 65 174 147 297 119 178 291 329 374
329 15 0 24 6 24 15 0 18 -23 18 -73 1z m-389 -408 c-82 -138 -170 -419 -199
-638 -10 -75 -21 -109 -50 -164 l-37 -69 -23 44 c-28 56 -47 137 -49 214 -4
114 102 358 226 521 67 88 172 199 181 191 3 -4 -19 -48 -49 -99z m-389 -878
c45 -86 53 -132 41 -242 -6 -56 -9 -123 -6 -148 l6 -45 -21 39 c-26 49 -55
131 -75 216 -18 74 -36 258 -28 272 8 12 58 -44 83 -92z m62 -37 c10 -8 14
-23 11 -38 -7 -41 -18 -37 -34 16 -16 49 -13 53 23 22z"/>
<path d="M1251 1664 c-19 -13 -52 -29 -73 -35 -45 -12 -136 -4 -185 17 -18 7
-33 10 -33 5 0 -8 93 -146 116 -172 8 -9 11 -19 7 -22 -11 -12 66 -38 84 -29
13 8 12 10 -8 15 -30 8 -87 61 -128 120 -17 25 -31 47 -31 49 0 2 40 2 89 0
74 -3 98 0 139 18 52 23 98 61 71 59 -8 0 -29 -12 -48 -25z"/>
<path d="M3814 1638 l-19 -23 23 19 c12 11 22 21 22 23 0 8 -8 2 -26 -19z"/>
<path d="M3983 1640 c-11 -16 -10 -18 2 -14 8 4 15 12 15 20 0 19 -3 18 -17
-6z"/>
<path d="M3780 1600 c-9 -6 -10 -10 -3 -10 6 0 15 5 18 10 8 12 4 12 -15 0z"/>
<path d="M71 1286 c-39 -46 -71 -92 -70 -102 0 -16 2 -16 17 6 9 13 43 59 74
102 32 43 56 78 53 78 -2 0 -36 -38 -74 -84z"/>
<path d="M2175 1300 c-3 -6 1 -7 9 -4 18 7 21 14 7 14 -6 0 -13 -4 -16 -10z"/>
<path d="M1596 1278 c3 -4 11 -8 19 -8 8 0 19 -8 24 -17 7 -12 11 -13 11 -5 0
10 16 13 60 11 33 -1 63 1 67 4 3 4 -16 7 -43 8 -27 0 -70 4 -96 8 -26 4 -45
4 -42 -1z"/>
<path d="M1800 1260 c0 -5 12 -10 28 -9 24 0 25 1 7 9 -27 12 -35 12 -35 0z"/>
<path d="M3541 1209 c-12 -28 -20 -54 -17 -57 3 -3 8 4 12 14 3 10 13 34 21
52 8 19 13 35 11 38 -3 2 -14 -19 -27 -47z"/>
<path d="M1945 1241 l40 -6 -30 -17 c-16 -10 -25 -17 -20 -18 6 0 21 7 33 16
13 9 35 20 50 24 19 6 7 8 -43 8 -56 -1 -62 -2 -30 -7z"/>
<path d="M1650 1226 c0 -2 7 -9 15 -16 13 -11 14 -10 9 4 -5 14 -24 23 -24 12z"/>
<path d="M3179 1123 c-13 -16 -12 -17 4 -4 9 7 17 15 17 17 0 8 -8 3 -21 -13z"/>
<path d="M3506 1123 c-6 -14 -5 -15 5 -6 7 7 10 15 7 18 -3 3 -9 -2 -12 -12z"/>
<path d="M96 999 c-53 -73 -96 -142 -96 -153 0 -25 1 -24 90 112 40 62 75 110
77 108 9 -8 -91 -193 -129 -239 -22 -26 -38 -52 -36 -58 6 -17 82 88 122 169
43 86 80 181 73 188 -3 3 -48 -54 -101 -127z"/>
<path d="M3491 1084 c0 -11 3 -14 6 -6 3 7 2 16 -1 19 -3 4 -6 -2 -5 -13z"/>
<path d="M3106 1054 c-9 -24 -7 -31 9 -31 8 0 15 4 15 9 0 4 -4 8 -10 8 -5 0
-7 7 -4 15 4 8 4 15 1 15 -3 0 -8 -7 -11 -16z"/>
<path d="M3130 1059 c0 -5 5 -7 10 -4 6 3 10 8 10 11 0 2 -4 4 -10 4 -5 0 -10
-5 -10 -11z"/>
<path d="M3476 1045 c-9 -26 -7 -32 5 -12 6 10 9 21 6 23 -2 3 -7 -2 -11 -11z"/>
<path d="M3105 1002 c-11 -8 -38 -63 -33 -68 2 -1 13 15 25 37 12 21 21 39 20
39 -1 0 -7 -4 -12 -8z"/>
<path d="M3382 710 c-12 -46 -21 -84 -19 -86 6 -7 50 143 45 156 -2 7 -14 -24
-26 -70z"/>
<path d="M3960 531 c-27 -54 -36 -57 -70 -22 -34 34 -40 26 -9 -13 21 -26 54
-47 97 -60 21 -7 22 -5 22 63 0 40 -4 71 -10 71 -5 0 -19 -18 -30 -39z"/>
<path d="M2982 190 c0 -85 3 -163 6 -173 4 -9 6 49 4 130 -4 207 -9 227 -10
43z"/>
<path d="M3461 185 c1 -19 18 -51 18 -35 0 8 -4 22 -9 30 -5 8 -9 11 -9 5z"/>
<path d="M3960 118 c-19 -29 -48 -67 -64 -85 -20 -24 -24 -33 -13 -33 8 0 32
24 53 53 56 79 57 79 51 10 -3 -35 -1 -63 4 -63 5 0 9 38 9 85 0 47 -1 85 -2
85 -2 0 -19 -24 -38 -52z"/>
<path d="M3491 114 c0 -11 3 -14 6 -6 3 7 2 16 -1 19 -3 4 -6 -2 -5 -13z"/>
<path d="M3496 81 c-3 -5 1 -11 9 -14 9 -4 12 -1 8 9 -6 16 -10 17 -17 5z"/>
<path d="M3516 28 c8 -28 12 -33 20 -25 4 4 2 13 -4 20 -7 8 -9 17 -5 20 3 4
1 7 -6 7 -8 0 -10 -8 -5 -22z"/>
<path d="M3290 15 c0 -9 9 -15 21 -15 18 0 19 2 9 15 -7 8 -16 15 -21 15 -5 0
-9 -7 -9 -15z"/>
</g>
</svg>
